<svg width="12.2604mm" height="12.2604mm" version="1.1" viewBox="0 0 9.2604 9.2604" xmlns="http://www.w3.org/2000/svg">
 <g transform="translate(-86.094 -131.8)">
  <path d="m90.724 131.8a4.6302 4.6302 0 0 0-4.6302 4.6302 4.6302 4.6302 0 0 0 4.6302 4.6302 4.6302 4.6302 0 0 0 4.6303-4.6302 4.6302 4.6302 0 0 0-4.6303-4.6302zm7e-3 1.8903 0.42412 0.5767-0.35501 0.36659 0.45495 0.54387 0.4979-0.47398-0.25886-0.43648 0.45773-0.4702 0.39552 0.4702-0.34255 0.43648 0.31795 0.55778 0.50425-0.39686-0.24239-0.48077 0.47943-0.36892 0.351 0.58137-0.3855 0.29047 0.34099 0.57025-0.44482 0.35245 0.346 0.59229-0.34867 0.4357 0.26676 0.4841-0.56067 0.53364 0.39051 0.67085-0.75632 0.58695-0.28668-0.40254-0.45962 0.45295-0.37571-0.46975-0.44004 0.48633-0.41032-0.46385-0.35568 0.45272-0.45484-0.40253-0.26698 0.33554-0.78592-0.57582 0.39541-0.65961-0.58337-0.47499 0.28701-0.66462-0.33331-0.33297 0.33309-0.58439-0.44482-0.35245 0.31695-0.55478-0.36647-0.32831 0.346-0.559 0.49946 0.40242-0.25207 0.4249 0.50414 0.41923 0.39274-0.55778-0.35423-0.43648 0.39285-0.46096 0.42802 0.45606-0.27299 0.44138 0.33309 0.35646 0.13844 0.12876 0.44883-0.55511-0.32552-0.36737zm-0.54353 1.4984-0.38561 0.45262 0.4101 0.38562 0.36102-0.39108zm1.0676-0.0112-0.43002 0.45261 0.3904 0.39686 0.39062-0.36325zm-2.1404 0.12297-0.29169 0.45841 0.39552 0.32407 0.29658-0.4022zm3.2229 0-0.40042 0.38028 0.29647 0.4022 0.39552-0.32407zm-1.1221 0.95042-0.31628 0.36881 0.29169 0.31851 0.29647-0.32964zm-1.0084 0.0558-0.24216 0.31306 0.30159 0.31851 0.25697-0.29625zm2.0019 0.056-0.2879 0.28635 0.1903 0.26209 0.31996-0.24117zm-2.9589 0.0342-0.22914 0.28991 0.32674 0.22447 0.16526-0.38584zm1.9208 1.0222-0.32118 0.37448 0.28679 0.31328 0.32129-0.32452zm-1.8083 0.0329-0.18786 0.22647 0.32184 0.25775 0.14334-0.23271zm2.7154 2e-3 -0.26553 0.25007 0.12965 0.23338 0.3342-0.2375zm-1.8313 0.027-0.23727 0.29647 0.27177 0.25564 0.27199-0.2503z" id="svg5" stroke-width=".059483"/>
 </g>
</svg>
